<?xml version="1.0" encoding="utf-8"?>
<!-- Generator: Adobe Illustrator 24.2.1, SVG Export Plug-In . SVG Version: 6.00 Build 0)  -->
<svg version="1.1" id="Layer_1" xmlns="http://www.w3.org/2000/svg" xmlns:xlink="http://www.w3.org/1999/xlink" x="0px" y="0px"
	 viewBox="0 0 512 512" style="enable-background:new 0 0 512 512;" xml:space="preserve">
<style type="text/css">
	.st0{fill:#828282;}
	.st1{fill:#3B3B3B;}
</style>
<g>
	<circle class="st0" cx="256" cy="256" r="256"/>
	<path class="st1" d="M71.1,87.8c20.6-23.5,59-52.7,89.5-51.3s-35.1,28.1-46.4,53.9s26.7,0.5,30.4-3.7c3.7-4.2,6.1-17.1,28.1-20.3
		s39.8-15.1,67.9,0s65.1,46.4,22.5,84.9s-50.6,36.7-61.4,37.1s-5.6,9.8-15.5,14c-9.8,4.2-17.3-7.5-30.9,5.6s9.4,21.4,21.1,17
		s20.1-22,26.2-27c6.1-5,24.4-4.9,41.7-5c17.3,0,24.4-19.1,43.1-4.7c18.7,14.5,9.8,42.7-11.2,34.2c-21.1-8.5-26.2-15.2-40.3,3.6
		s35.1,14.2,16.4,32.9c-18.7,18.7-34.7-14.3-45,18.6c-10.3,32.9,21.1,19.6,23.4,46.4s9.4,46.7-15.9,55.7
		c-25.3,9-46.4,11.2-57.1,20.7c-10.8,9.5-18.3-1.7-14.5-19.5c3.7-17.9-1.9-15.8-20.1-8.2c-18.3,7.6-39.8-1.9-35.6-19.9
		c4.2-17.9,26.2-6,18.3-25.8c-8-19.8-0.5-24.9-17.3-20.2c-16.9,4.6-37.9,20.3-52.9-11.9S6,196.1,27.1,153.8S71.1,87.8,71.1,87.8z"/>
	<path class="st1" d="M15.5,286.1c4.6,15.1,13.7,6.1,8.9-8.5C20.6,266.4,9.9,267.9,15.5,286.1z"/>
	<path class="st1" d="M233.5,49.2c-8.9-1.4-13,7.2-4.4,9.8C239.5,62.2,245.6,51.2,233.5,49.2z"/>
	<path class="st1" d="M304.1,103.1c-6.7,0.7-15.6,12.2-16.6,31c-1.1,18.8,12.6,46.7,37.9,49.2s22.1-1.1,15.5,14.6
		s-12.6,47.6,6.3,57.8c19,10.3,21.4,6.3,17.2,16.7c-4.2,10.4-13.3,18.8,1.8,24.1s30.6,10.8,21.4,18.4s-15.8,23.5,0,28.7
		s21.8-3.5,24.9-15.4s2.5-20.1-11.2-28.8s-23.5-31.4-14.1-43.3c9.5-11.9,23.2,6.4,30.6-5.4c7.4-11.8,6.3,6.8,9.1,17.5
		c2.8,10.8-7.4,22.6,6.3,33c13.7,10.4,9.5,28.3,17.6,34.3s15.1,7.3,26.7,3.3c11.6-4,21.8-25,19-44c-2.8-19-5.3-30.3-3.9-38.7
		c1.4-8.4,3.2-14.3-10.9-15s-20.4-5-30.6-13.2s-6-18.4-17.6-33.7c-11.6-15.3-22.1-20.9-28.1-28.6c-6-7.7-9.1,2.8-14.8,10.9
		s-13.3,9.8-16.9-3.2s10.9-27.8-7-45.3c-17.9-17.6-6.7-30.1-21.8-34c-15.1-3.9-11.9,0.7-20.7,5.9S310.7,102.4,304.1,103.1z"/>
	<path class="st1" d="M209.5,31c-13.7,1.1-24.3,10.5-6.7,14s27.1-10.8,41.1-3.5c14.1,7.3,28.5,21.7,51.6,24.5
		c23.2,2.8,24.9-4.6,40-7c15.1-2.5,23.5-4.2,5.6-13.4s-22.8,0.1-47.4-4.2s-39.7-15.9-55.4-15.9C228.4,25.7,223.2,29.9,209.5,31z"/>
	<path class="st1" d="M448.5,153.3c-9.5,5.2-10.7,27.7,0.5,40.9s31.7,32.8,37.1,6c3.7-18.4-4.1-36.4-10.4-43.8
		C470.1,149.8,458,148.1,448.5,153.3z"/>
	<path class="st1" d="M115.6,399.3c-6.3-4.7-19.5-7.3-12.1,4.6c7.4,11.9,20.4,21.2,22.1,13.9C127.4,410.4,122,404,115.6,399.3z"/>
	<path class="st1" d="M468.3,392.9c-8.3,7-68.1,50.5-76.2,61.4c-8.1,10.9-24.3,28.5-12.7,22.5c11.6-6,33.6-19.8,56.7-43.3
		C458.4,410.9,468.3,392.9,468.3,392.9z"/>
</g>
</svg>
